<svg width="30" height="23" viewBox="0 0 30 23" fill="none" xmlns="http://www.w3.org/2000/svg">
<path d="M18.9426 22.5593C18.6344 22.5593 18.3262 22.4458 18.083 22.2025C17.6126 21.7321 17.6126 20.9536 18.083 20.4833L27.0684 11.4978L18.083 2.51243C17.6126 2.04208 17.6126 1.26355 18.083 0.793197C18.5533 0.322841 19.3318 0.322841 19.8022 0.793197L29.6473 10.6382C30.1176 11.1086 30.1176 11.8871 29.6473 12.3575L19.8022 22.2025C19.5589 22.4458 19.2507 22.5593 18.9426 22.5593Z" fill="#B5D2C1"/>
<path d="M28.5133 12.7141H1.21644C0.551453 12.7141 0 12.1627 0 11.4977C0 10.8327 0.551453 10.2812 1.21644 10.2812H28.5133C29.1783 10.2812 29.7298 10.8327 29.7298 11.4977C29.7298 12.1627 29.1783 12.7141 28.5133 12.7141Z" fill="#B5D2C1"/>
</svg>
