<svg width="20" height="21" viewBox="0 0 20 21" fill="none" xmlns="http://www.w3.org/2000/svg">
<path d="M15.0979 20.0373C14.0447 20.0373 12.9357 19.7856 11.7894 19.301C10.671 18.8257 9.54334 18.1733 8.44362 17.3812C7.35322 16.5797 6.30009 15.685 5.30289 14.7064C4.315 13.7092 3.42032 12.6561 2.62815 11.575C1.82665 10.4567 1.1836 9.3383 0.726934 8.25722C0.242311 7.10158 0 5.98322 0 4.9301C0 4.20317 0.130475 3.51351 0.382106 2.87046C0.643057 2.20876 1.06244 1.59366 1.63094 1.06244C2.34856 0.354147 3.16869 0 4.04473 0C4.4082 0 4.78099 0.083877 5.09786 0.232992C5.46132 0.400746 5.76887 0.652376 5.99254 0.987884L8.15471 4.03541C8.35042 4.30569 8.49953 4.56664 8.60205 4.82759C8.72321 5.10718 8.78844 5.38677 8.78844 5.65704C8.78844 6.01118 8.68593 6.35601 8.49021 6.6822C8.35042 6.93383 8.13607 7.2041 7.8658 7.47437L7.23206 8.13607C7.24138 8.16403 7.2507 8.18267 7.26002 8.20131C7.37185 8.39702 7.59553 8.73253 8.02423 9.23579C8.4809 9.75769 8.9096 10.233 9.3383 10.671C9.88816 11.2116 10.3448 11.6403 10.7735 11.9944C11.3048 12.4418 11.6496 12.6654 11.8546 12.7679L11.836 12.8145L12.5163 12.1435C12.8052 11.8546 13.0848 11.6403 13.3551 11.5005C13.8677 11.1836 14.52 11.1277 15.1724 11.3979C15.4147 11.5005 15.6757 11.6403 15.9553 11.836L19.0494 14.0354C19.3942 14.2684 19.6459 14.5666 19.795 14.9208C19.9348 15.2749 20 15.6011 20 15.9273C20 16.3747 19.8975 16.822 19.7018 17.2414C19.5061 17.6608 19.2637 18.0242 18.9562 18.3597C18.425 18.9469 17.8472 19.3663 17.1761 19.6365C16.5331 19.8975 15.8341 20.0373 15.0979 20.0373ZM4.04473 1.39795C3.53215 1.39795 3.05685 1.62162 2.60019 2.06897C2.17148 2.46971 1.87325 2.90774 1.68686 3.38304C1.49115 3.86766 1.39795 4.38024 1.39795 4.9301C1.39795 5.79683 1.60298 6.73812 2.01305 7.70736C2.43243 8.69525 3.01957 9.72041 3.76514 10.7456C4.51072 11.7707 5.35881 12.7679 6.29077 13.7092C7.22274 14.6319 8.22926 15.4893 9.26375 16.2442C10.2703 16.9804 11.3048 17.5769 12.3299 18.0056C13.9236 18.6859 15.4147 18.8444 16.6449 18.3318C17.1202 18.1361 17.5396 17.8378 17.9217 17.4091C18.1361 17.1761 18.3038 16.9245 18.4436 16.6263C18.5555 16.3933 18.6114 16.151 18.6114 15.9087C18.6114 15.7596 18.5834 15.6104 18.5089 15.4427C18.4809 15.3868 18.425 15.2843 18.2479 15.1631L15.1538 12.9637C14.9674 12.8332 14.7996 12.74 14.6412 12.6747C14.4362 12.5909 14.3523 12.507 14.0354 12.7027C13.849 12.7959 13.6813 12.9357 13.4949 13.1221L12.7866 13.8211C12.4231 14.1752 11.8639 14.2591 11.4352 14.1007L11.1836 13.9888C10.8015 13.7838 10.3541 13.4669 9.86021 13.0475C9.41286 12.6654 8.92824 12.2181 8.3411 11.6403C7.88444 11.1743 7.42777 10.6803 6.95247 10.1305C6.51445 9.61789 6.19758 9.17987 6.00186 8.8164L5.89003 8.53681C5.83411 8.32246 5.81547 8.20131 5.81547 8.07083C5.81547 7.73532 5.93663 7.43709 6.16962 7.2041L6.86859 6.47717C7.05499 6.29077 7.19478 6.1137 7.28798 5.95527C7.36253 5.83411 7.39049 5.73159 7.39049 5.6384C7.39049 5.56384 7.36254 5.452 7.31594 5.34017C7.2507 5.19105 7.14818 5.0233 7.01771 4.84623L4.85555 1.78938C4.76235 1.6589 4.65051 1.5657 4.51072 1.50047C4.3616 1.43523 4.20317 1.39795 4.04473 1.39795ZM11.836 12.8239L11.6869 13.4576L11.9385 12.8052C11.8919 12.7959 11.8546 12.8052 11.836 12.8239Z" fill="#0A2718"/>
</svg>
