<svg width="20" height="21" viewBox="0 0 20 21" fill="none" xmlns="http://www.w3.org/2000/svg">
<path d="M15.8333 3.35181H4.16667C3.50363 3.35181 2.86775 3.6152 2.3989 4.08404C1.93006 4.55288 1.66667 5.18877 1.66667 5.85181V14.1851C1.66667 14.8482 1.93006 15.4841 2.3989 15.9529C2.86775 16.4217 3.50363 16.6851 4.16667 16.6851H15.8333C16.4964 16.6851 17.1323 16.4217 17.6011 15.9529C18.0699 15.4841 18.3333 14.8482 18.3333 14.1851V5.85181C18.3333 5.18877 18.0699 4.55288 17.6011 4.08404C17.1323 3.6152 16.4964 3.35181 15.8333 3.35181ZM15.275 5.01847L10 8.97681L4.72501 5.01847H15.275ZM15.8333 15.0185H4.16667C3.94566 15.0185 3.7337 14.9307 3.57742 14.7744C3.42114 14.6181 3.33334 14.4062 3.33334 14.1851V6.06014L9.5 10.6851C9.64425 10.7933 9.8197 10.8518 10 10.8518C10.1803 10.8518 10.3558 10.7933 10.5 10.6851L16.6667 6.06014V14.1851C16.6667 14.4062 16.5789 14.6181 16.4226 14.7744C16.2663 14.9307 16.0544 15.0185 15.8333 15.0185Z" fill="#0A2718"/>
</svg>
