<svg width="20" height="21" viewBox="0 0 20 21" fill="none" xmlns="http://www.w3.org/2000/svg">
<path d="M20 10.0805C20 4.5219 15.5206 0.0185547 10 0.0185547C4.47563 0.0185547 0 4.5219 0 10.0805C0 15.1014 3.65562 19.2645 8.4375 20.0186V12.9897H5.89813V10.0811H8.4375V7.8631C8.4375 5.34195 9.92813 3.94963 12.2131 3.94963C13.3075 3.94963 14.4531 4.14584 14.4531 4.14584V6.62171H13.19C11.95 6.62171 11.5625 7.39836 11.5625 8.19388V10.0805H14.3356L13.89 12.989H11.5625V20.0179C16.3406 19.2639 20 15.1008 20 10.0799V10.0805Z" fill="#0A2718"/>
</svg>
