<svg width="20" height="21" viewBox="0 0 20 21" fill="none" xmlns="http://www.w3.org/2000/svg">
<path d="M9.99998 0.851787C7.59453 0.827344 5.27779 1.75896 3.55892 3.44189C1.84005 5.12482 0.859696 7.42136 0.833313 9.82679C0.842582 11.7278 1.4541 13.5769 2.58003 15.1086C3.70596 16.6403 5.28838 17.7757 7.09998 18.3518C7.55831 18.4351 7.72498 18.1601 7.72498 17.9185C7.72498 17.6768 7.72498 17.1435 7.72498 16.3935C5.17498 16.9351 4.63331 15.1935 4.63331 15.1935C4.46356 14.6467 4.10267 14.1793 3.61665 13.8768C2.78331 13.3268 3.68331 13.3351 3.68331 13.3351C3.97136 13.3736 4.24694 13.4769 4.4894 13.637C4.73187 13.7972 4.93491 14.0103 5.08331 14.2601C5.34192 14.7086 5.76626 15.0375 6.26499 15.1762C6.76372 15.3149 7.29697 15.2523 7.74998 15.0018C7.79657 14.5454 8.00322 14.1203 8.33331 13.8018C6.29998 13.5768 4.16665 12.8101 4.16665 9.36845C4.14846 8.47069 4.48018 7.60105 5.09165 6.94345C4.81317 6.17268 4.84605 5.32371 5.18331 4.57679C5.18331 4.57679 5.95831 4.33512 7.68331 5.49345C9.18489 5.09332 10.7651 5.09332 12.2666 5.49345C14.0166 4.33512 14.7666 4.57679 14.7666 4.57679C15.1039 5.32371 15.1368 6.17268 14.8583 6.94345C15.484 7.58899 15.8337 8.4528 15.8333 9.35179C15.8333 12.8018 13.6833 13.5601 11.6666 13.7851C11.8875 13.9995 12.058 14.2602 12.1661 14.5483C12.2742 14.8365 12.317 15.1451 12.2916 15.4518V17.9101C12.2916 17.9101 12.4583 18.4351 12.9166 18.3435C14.7231 17.7638 16.3002 16.6281 17.4226 15.0986C18.5451 13.569 19.1555 11.7239 19.1666 9.82679C19.1403 7.42136 18.1599 5.12482 16.441 3.44189C14.7222 1.75896 12.4054 0.827344 9.99998 0.851787Z" fill="#0A2718"/>
</svg>
