<svg width="20" height="21" viewBox="0 0 20 21" fill="none" xmlns="http://www.w3.org/2000/svg">
<path fill-rule="evenodd" clip-rule="evenodd" d="M5.87722 0.0785547C6.94389 0.0296638 7.28389 0.0185547 10 0.0185547C12.7166 0.0185547 13.0561 0.0302183 14.1222 0.0785547C15.1872 0.126891 15.9145 0.296337 16.5505 0.543555C17.2177 0.794746 17.8221 1.18832 18.3216 1.69689C18.8303 2.19637 19.2239 2.80079 19.475 3.468C19.7222 4.10411 19.8911 4.83134 19.94 5.89577C19.9889 6.96245 20 7.30245 20 10.0186C20 12.7346 19.9884 13.0746 19.94 14.1414C19.8916 15.2057 19.7222 15.933 19.475 16.5691C19.2195 17.2264 18.8772 17.7846 18.3216 18.3402C17.8222 18.8488 17.2177 19.2425 16.5505 19.4936C15.9145 19.7407 15.1872 19.9096 14.1228 19.9586C13.0561 20.0075 12.7161 20.0186 10 20.0186C7.28389 20.0186 6.94389 20.0069 5.87722 19.9586C4.81278 19.9102 4.08556 19.7407 3.44945 19.4936C2.79222 19.238 2.23389 18.8957 1.67834 18.3402C1.16967 17.8407 0.776073 17.2363 0.525 16.5691C0.277782 15.933 0.108891 15.2057 0.06 14.1414C0.0111091 13.0746 0 12.7352 0 10.0186C0 7.30189 0.0116636 6.96245 0.06 5.89634C0.108336 4.83134 0.277782 4.10411 0.525 3.468C0.776191 2.80084 1.16976 2.19645 1.67834 1.69689C2.17781 1.18823 2.78223 0.794627 3.44945 0.543555C4.08556 0.296337 4.81278 0.127446 5.87722 0.0785547ZM14.0411 1.87855C12.9866 1.83077 12.67 1.82022 10 1.82022C7.33 1.82022 7.01334 1.83077 5.95889 1.87855C4.98389 1.923 4.45445 2.08577 4.10222 2.223C3.63555 2.40411 3.30222 2.62077 2.95222 2.97077C2.60278 3.32077 2.38555 3.65411 2.20445 4.12077C2.06722 4.473 1.90445 5.00245 1.86 5.97745C1.81222 7.03189 1.80166 7.34856 1.80166 10.0186C1.80166 12.6886 1.81222 13.0052 1.86 14.0596C1.90445 15.0346 2.06722 15.5641 2.20445 15.9164C2.36465 16.3507 2.62017 16.7436 2.95222 17.0664C3.27485 17.3984 3.66783 17.6539 4.10222 17.8141C4.45445 17.9514 4.98389 18.1141 5.95889 18.1586C7.01334 18.2064 7.32945 18.2169 10 18.2169C12.6705 18.2169 12.9866 18.2064 14.0411 18.1586C15.0161 18.1141 15.5455 17.9514 15.8978 17.8141C16.3645 17.633 16.6978 17.4164 17.0478 17.0664C17.3798 16.7437 17.6354 16.3507 17.7955 15.9164C17.9328 15.5641 18.0955 15.0346 18.14 14.0596C18.1878 13.0052 18.1984 12.6886 18.1984 10.0186C18.1984 7.34856 18.1878 7.03189 18.14 5.97745C18.0955 5.00245 17.9328 4.473 17.7955 4.12077C17.6145 3.65411 17.3978 3.32077 17.0478 2.97077C16.6978 2.62134 16.3645 2.40411 15.8978 2.223C15.5455 2.08577 15.0161 1.923 14.0411 1.87855ZM8.72318 13.1012C9.128 13.2689 9.56182 13.3552 10 13.3552C10.885 13.3552 11.7336 13.0036 12.3594 12.3779C12.9852 11.7522 13.3367 10.9035 13.3367 10.0186C13.3367 9.13365 12.9852 8.28492 12.3594 7.65917C11.7336 7.03343 10.885 6.68188 10 6.68188C9.56182 6.68188 9.128 6.76819 8.72318 6.93587C8.31827 7.10355 7.95048 7.34933 7.64065 7.65917C7.33081 7.96901 7.08503 8.33683 6.91735 8.74165C6.74966 9.14646 6.66336 9.58037 6.66336 10.0186C6.66336 10.4567 6.74966 10.8906 6.91735 11.2955C7.08503 11.7003 7.33081 12.0681 7.64065 12.3779C7.95048 12.6877 8.31827 12.9336 8.72318 13.1012ZM6.3655 6.38402C7.32944 5.42008 8.63682 4.87855 10 4.87855C11.3633 4.87855 12.6706 5.42008 13.6345 6.38402C14.5985 7.34796 15.14 8.65537 15.14 10.0186C15.14 11.3817 14.5985 12.6891 13.6345 13.6531C12.6706 14.617 11.3633 15.1586 10 15.1586C8.63682 15.1586 7.32944 14.617 6.3655 13.6531C5.40156 12.6891 4.86003 11.3817 4.86003 10.0186C4.86003 8.65537 5.40156 7.34796 6.3655 6.38402ZM16.2797 5.64435C16.5075 5.41649 16.6355 5.10745 16.6355 4.78522C16.6355 4.46297 16.5075 4.15394 16.2797 3.92608C16.0518 3.69823 15.7428 3.57022 15.4205 3.57022C15.0984 3.57022 14.7893 3.69823 14.5615 3.92608C14.3335 4.15394 14.2055 4.46297 14.2055 4.78522C14.2055 5.10745 14.3335 5.41649 14.5615 5.64435C14.7893 5.87221 15.0984 6.00022 15.4205 6.00022C15.7428 6.00022 16.0518 5.87221 16.2797 5.64435Z" fill="#B5D2C1"/>
</svg>
