<svg width="20" height="21" viewBox="0 0 20 21" fill="none" xmlns="http://www.w3.org/2000/svg">
<path d="M12.6251 7.01858C11.9864 7.01639 11.3535 7.14016 10.7627 7.38281C10.1718 7.62547 9.63467 7.98223 9.18187 8.43271C8.72907 8.88318 8.36955 9.41852 8.12386 10.0081C7.87818 10.5977 7.75115 11.2299 7.75006 11.8686V16.7686C7.75006 16.9675 7.82908 17.1583 7.96973 17.2989C8.11038 17.4396 8.30115 17.5186 8.50006 17.5186H10.2501C10.449 17.5186 10.6397 17.4396 10.7804 17.2989C10.921 17.1583 11.0001 16.9675 11.0001 16.7686V11.8686C10.9999 11.6414 11.0476 11.4168 11.1401 11.2093C11.2326 11.0018 11.3677 10.8161 11.5368 10.6644C11.7058 10.5126 11.905 10.3982 12.1212 10.3286C12.3374 10.2589 12.5659 10.2357 12.7917 10.2603C13.1967 10.3113 13.5689 10.5091 13.8377 10.8163C14.1065 11.1235 14.2533 11.5187 14.2501 11.9269V16.7686C14.2501 16.9675 14.3291 17.1583 14.4697 17.2989C14.6104 17.4396 14.8011 17.5186 15.0001 17.5186H16.7501C16.949 17.5186 17.1397 17.4396 17.2804 17.2989C17.421 17.1583 17.5001 16.9675 17.5001 16.7686V11.8686C17.499 11.2299 17.3719 10.5977 17.1263 10.0081C16.8806 9.41852 16.521 8.88318 16.0683 8.43271C15.6155 7.98223 15.0783 7.62547 14.4875 7.38281C13.8966 7.14016 13.2638 7.01639 12.6251 7.01858Z" fill="#B5D2C1"/>
<path d="M5.5 7.76855H3.25C2.83579 7.76855 2.5 8.10434 2.5 8.51855V16.7686C2.5 17.1828 2.83579 17.5186 3.25 17.5186H5.5C5.91421 17.5186 6.25 17.1828 6.25 16.7686V8.51855C6.25 8.10434 5.91421 7.76855 5.5 7.76855Z" fill="#B5D2C1"/>
<path d="M4.375 6.26855C5.41053 6.26855 6.25 5.42909 6.25 4.39355C6.25 3.35802 5.41053 2.51855 4.375 2.51855C3.33947 2.51855 2.5 3.35802 2.5 4.39355C2.5 5.42909 3.33947 6.26855 4.375 6.26855Z" fill="#B5D2C1"/>
</svg>
