<svg width="20" height="18" viewBox="0 0 20 18" fill="none" xmlns="http://www.w3.org/2000/svg">
<path d="M10 0.129639C7.58368 0.129639 5.625 2.08832 5.625 4.50464C5.625 6.45811 8.48438 10.0185 9.57986 11.3109C9.80174 11.5727 10.1986 11.5727 10.4201 11.3109C11.5156 10.0185 14.375 6.45811 14.375 4.50464C14.375 2.08832 12.4163 0.129639 10 0.129639ZM10 5.96298C9.19444 5.96298 8.54167 5.3102 8.54167 4.50464C8.54167 3.69909 9.19444 3.04631 10 3.04631C10.8056 3.04631 11.4583 3.69909 11.4583 4.50464C11.4583 5.3102 10.8056 5.96298 10 5.96298ZM0.698611 7.62791C0.492423 7.71038 0.31567 7.85273 0.191149 8.0366C0.066628 8.22047 4.93822e-05 8.43744 0 8.6595L0 17.3512C0 17.7442 0.396875 18.013 0.761806 17.8671L5.55556 15.6852V7.59214C5.24861 7.03728 4.99757 6.497 4.81771 5.98034L0.698611 7.62791ZM10 12.6182C9.51146 12.6182 9.04931 12.4036 8.73229 12.0293C8.04965 11.2237 7.32361 10.3064 6.66667 9.36541V15.6849L13.3333 17.9071V9.36576C12.6764 10.3064 11.9507 11.2241 11.2677 12.0296C10.9507 12.4036 10.4885 12.6182 10 12.6182ZM19.2382 5.72548L14.4444 7.90742V17.9074L19.3014 15.9647C19.5076 15.8823 19.6844 15.7399 19.8089 15.5561C19.9334 15.3722 20 15.1552 20 14.9331V6.24145C20 5.84839 19.6031 5.57964 19.2382 5.72548Z" fill="#B5D2C1"/>
</svg>
