<svg width="20" height="21" viewBox="0 0 20 21" fill="none" xmlns="http://www.w3.org/2000/svg">
<g id="&#240;&#159;&#166;&#134; icon &#34;github&#34;">
<path id="Vector" d="M9.99998 0.852032C7.59453 0.827588 5.27779 1.7592 3.55892 3.44214C1.84005 5.12507 0.859696 7.4216 0.833313 9.82703C0.842582 11.728 1.4541 13.5771 2.58003 15.1088C3.70596 16.6405 5.28838 17.7759 7.09998 18.352C7.55831 18.4354 7.72498 18.1604 7.72498 17.9187C7.72498 17.677 7.72498 17.1437 7.72498 16.3937C5.17498 16.9354 4.63331 15.1937 4.63331 15.1937C4.46356 14.6469 4.10267 14.1796 3.61665 13.877C2.78331 13.327 3.68331 13.3354 3.68331 13.3354C3.97136 13.3739 4.24694 13.4771 4.4894 13.6373C4.73187 13.7975 4.93491 14.0105 5.08331 14.2604C5.34192 14.7088 5.76626 15.0378 6.26499 15.1765C6.76372 15.3152 7.29697 15.2525 7.74998 15.002C7.79657 14.5457 8.00322 14.1206 8.33331 13.802C6.29998 13.577 4.16665 12.8104 4.16665 9.3687C4.14846 8.47093 4.48018 7.60129 5.09165 6.9437C4.81317 6.17292 4.84605 5.32396 5.18331 4.57703C5.18331 4.57703 5.95831 4.33537 7.68331 5.4937C9.18489 5.09356 10.7651 5.09356 12.2666 5.4937C14.0166 4.33537 14.7666 4.57703 14.7666 4.57703C15.1039 5.32396 15.1368 6.17292 14.8583 6.9437C15.484 7.58924 15.8337 8.45304 15.8333 9.35203C15.8333 12.802 13.6833 13.5604 11.6666 13.7854C11.8875 13.9998 12.058 14.2604 12.1661 14.5486C12.2742 14.8368 12.317 15.1453 12.2916 15.452V17.9104C12.2916 17.9104 12.4583 18.4354 12.9166 18.3437C14.7231 17.764 16.3002 16.6283 17.4226 15.0988C18.5451 13.5693 19.1555 11.7242 19.1666 9.82703C19.1403 7.4216 18.1599 5.12507 16.441 3.44214C14.7222 1.7592 12.4054 0.827588 9.99998 0.852032Z" fill="#0A2718"/>
</g>
</svg>
