<svg width="20" height="21" viewBox="0 0 20 21" fill="none" xmlns="http://www.w3.org/2000/svg">
<g id="&#240;&#159;&#166;&#134; icon &#34;instagram fill icon&#34;">
<path id="Vector" fill-rule="evenodd" clip-rule="evenodd" d="M5.87722 0.0786767C6.94389 0.0297858 7.28389 0.0186768 10 0.0186768C12.7166 0.0186768 13.0561 0.0303404 14.1222 0.0786767C15.1872 0.127013 15.9145 0.296459 16.5505 0.543677C17.2177 0.794868 17.8221 1.18844 18.3216 1.69701C18.8303 2.1965 19.2239 2.80091 19.475 3.46812C19.7222 4.10423 19.8911 4.83146 19.94 5.8959C19.9889 6.96257 20 7.30257 20 10.0187C20 12.7348 19.9884 13.0748 19.94 14.1415C19.8916 15.2059 19.7222 15.9331 19.475 16.5692C19.2195 17.2265 18.8772 17.7848 18.3216 18.3403C17.8222 18.8489 17.2177 19.2426 16.5505 19.4937C15.9145 19.7409 15.1872 19.9098 14.1228 19.9587C13.0561 20.0076 12.7161 20.0187 10 20.0187C7.28389 20.0187 6.94389 20.007 5.87722 19.9587C4.81278 19.9103 4.08556 19.7409 3.44945 19.4937C2.79222 19.2381 2.23389 18.8959 1.67834 18.3403C1.16967 17.8409 0.776073 17.2364 0.525 16.5692C0.277782 15.9331 0.108891 15.2059 0.06 14.1415C0.0111091 13.0748 0 12.7353 0 10.0187C0 7.30201 0.0116636 6.96257 0.06 5.89646C0.108336 4.83146 0.277782 4.10423 0.525 3.46812C0.776191 2.80096 1.16976 2.19657 1.67834 1.69701C2.17781 1.18835 2.78223 0.794749 3.44945 0.543677C4.08556 0.296459 4.81278 0.127568 5.87722 0.0786767ZM14.0411 1.87868C12.9866 1.83089 12.67 1.82034 10 1.82034C7.33 1.82034 7.01334 1.83089 5.95889 1.87868C4.98389 1.92312 4.45445 2.0859 4.10222 2.22312C3.63555 2.40423 3.30222 2.62089 2.95222 2.97089C2.60278 3.32089 2.38555 3.65423 2.20445 4.1209C2.06722 4.47312 1.90445 5.00257 1.86 5.97757C1.81222 7.03201 1.80166 7.34868 1.80166 10.0187C1.80166 12.6887 1.81222 13.0053 1.86 14.0598C1.90445 15.0348 2.06722 15.5642 2.20445 15.9165C2.36465 16.3509 2.62017 16.7438 2.95222 17.0665C3.27485 17.3985 3.66783 17.654 4.10222 17.8142C4.45445 17.9515 4.98389 18.1142 5.95889 18.1587C7.01334 18.2065 7.32945 18.217 10 18.217C12.6705 18.217 12.9866 18.2065 14.0411 18.1587C15.0161 18.1142 15.5455 17.9515 15.8978 17.8142C16.3645 17.6331 16.6978 17.4165 17.0478 17.0665C17.3798 16.7439 17.6354 16.3509 17.7955 15.9165C17.9328 15.5642 18.0955 15.0348 18.14 14.0598C18.1878 13.0053 18.1984 12.6887 18.1984 10.0187C18.1984 7.34868 18.1878 7.03201 18.14 5.97757C18.0955 5.00257 17.9328 4.47312 17.7955 4.1209C17.6145 3.65423 17.3978 3.32089 17.0478 2.97089C16.6978 2.62146 16.3645 2.40423 15.8978 2.22312C15.5455 2.0859 15.0161 1.92312 14.0411 1.87868ZM8.72318 13.1013C9.128 13.269 9.56182 13.3553 10 13.3553C10.885 13.3553 11.7336 13.0038 12.3594 12.378C12.9852 11.7523 13.3367 10.9036 13.3367 10.0187C13.3367 9.13377 12.9852 8.28504 12.3594 7.6593C11.7336 7.03355 10.885 6.682 10 6.682C9.56182 6.682 9.128 6.76831 8.72318 6.936C8.31827 7.10368 7.95048 7.34945 7.64065 7.6593C7.33081 7.96913 7.08503 8.33695 6.91735 8.74177C6.74966 9.14659 6.66336 9.58049 6.66336 10.0187C6.66336 10.4569 6.74966 10.8908 6.91735 11.2956C7.08503 11.7004 7.33081 12.0682 7.64065 12.378C7.95048 12.6879 8.31827 12.9337 8.72318 13.1013ZM6.3655 6.38414C7.32944 5.4202 8.63682 4.87867 10 4.87867C11.3633 4.87867 12.6706 5.4202 13.6345 6.38414C14.5985 7.34808 15.14 8.65549 15.14 10.0187C15.14 11.3819 14.5985 12.6892 13.6345 13.6532C12.6706 14.6171 11.3633 15.1587 10 15.1587C8.63682 15.1587 7.32944 14.6171 6.3655 13.6532C5.40156 12.6892 4.86003 11.3819 4.86003 10.0187C4.86003 8.65549 5.40156 7.34808 6.3655 6.38414ZM16.2797 5.64448C16.5075 5.41661 16.6355 5.10758 16.6355 4.78534C16.6355 4.4631 16.5075 4.15406 16.2797 3.9262C16.0518 3.69835 15.7428 3.57034 15.4205 3.57034C15.0984 3.57034 14.7893 3.69835 14.5615 3.9262C14.3335 4.15406 14.2055 4.4631 14.2055 4.78534C14.2055 5.10758 14.3335 5.41661 14.5615 5.64448C14.7893 5.87233 15.0984 6.00034 15.4205 6.00034C15.7428 6.00034 16.0518 5.87233 16.2797 5.64448Z" fill="#0A2718"/>
</g>
</svg>
