<svg width="20" height="21" viewBox="0 0 20 21" fill="none" xmlns="http://www.w3.org/2000/svg">
<g id="&#240;&#159;&#166;&#134; icon &#34;email outline&#34;">
<path id="Vector" d="M15.8333 3.35205H4.16667C3.50363 3.35205 2.86774 3.61544 2.3989 4.08428C1.93006 4.55312 1.66667 5.18901 1.66667 5.85205V14.1854C1.66667 14.8484 1.93006 15.4843 2.3989 15.9532C2.86774 16.422 3.50363 16.6854 4.16667 16.6854H15.8333C16.4964 16.6854 17.1323 16.422 17.6011 15.9532C18.0699 15.4843 18.3333 14.8484 18.3333 14.1854V5.85205C18.3333 5.18901 18.0699 4.55312 17.6011 4.08428C17.1323 3.61544 16.4964 3.35205 15.8333 3.35205ZM15.275 5.01872L10 8.97705L4.725 5.01872H15.275ZM15.8333 15.0187H4.16667C3.94565 15.0187 3.73369 14.9309 3.57741 14.7746C3.42113 14.6184 3.33333 14.4064 3.33333 14.1854V6.06038L9.5 10.6854C9.64425 10.7936 9.81969 10.8521 10 10.8521C10.1803 10.8521 10.3558 10.7936 10.5 10.6854L16.6667 6.06038V14.1854C16.6667 14.4064 16.5789 14.6184 16.4226 14.7746C16.2663 14.9309 16.0543 15.0187 15.8333 15.0187Z" fill="#0A2718"/>
</g>
</svg>
