<svg width="20" height="21" viewBox="0 0 20 21" fill="none" xmlns="http://www.w3.org/2000/svg">
<g id="&#240;&#159;&#166;&#134; icon &#34;facebook&#34;">
<path id="Vector" d="M20 10.0806C20 4.52203 15.5206 0.0186768 10 0.0186768C4.47563 0.0186768 0 4.52203 0 10.0806C0 15.1015 3.65562 19.2647 8.4375 20.0187V12.9898H5.89813V10.0812H8.4375V7.86322C8.4375 5.34207 9.92813 3.94975 12.2131 3.94975C13.3075 3.94975 14.4531 4.14596 14.4531 4.14596V6.62183H13.19C11.95 6.62183 11.5625 7.39848 11.5625 8.19401V10.0806H14.3356L13.89 12.9892H11.5625V20.018C16.3406 19.264 20 15.1009 20 10.08V10.0806Z" fill="#0A2718"/>
</g>
</svg>
