<svg width="30" height="23" viewBox="0 0 30 23" fill="none" xmlns="http://www.w3.org/2000/svg">
<g id="&#240;&#159;&#166;&#134; icon &#34;arrow right 1&#34;">
<g id="Group">
<path id="Vector" d="M18.9426 22.5595C18.6344 22.5595 18.3262 22.4459 18.083 22.2026C17.6126 21.7323 17.6126 20.9537 18.083 20.4834L27.0684 11.498L18.083 2.51255C17.6126 2.0422 17.6126 1.26368 18.083 0.793319C18.5533 0.322963 19.3318 0.322963 19.8022 0.793319L29.6473 10.6383C30.1176 11.1087 30.1176 11.8872 29.6473 12.3576L19.8022 22.2026C19.5589 22.4459 19.2507 22.5595 18.9426 22.5595Z" fill="#292D32"/>
<path id="Vector_2" d="M28.5133 12.7143H1.21644C0.551453 12.7143 0 12.1628 0 11.4978C0 10.8328 0.551453 10.2814 1.21644 10.2814H28.5133C29.1783 10.2814 29.7298 10.8328 29.7298 11.4978C29.7298 12.1628 29.1783 12.7143 28.5133 12.7143Z" fill="#292D32"/>
</g>
</g>
</svg>
