<svg width="20" height="18" viewBox="0 0 20 18" fill="none" xmlns="http://www.w3.org/2000/svg">
<g id="&#240;&#159;&#166;&#134; icon &#34;Alternate Map Marked&#34;">
<path id="Vector" d="M10 0.129761C7.58368 0.129761 5.625 2.08844 5.625 4.50476C5.625 6.45824 8.48438 10.0187 9.57986 11.311C9.80174 11.5728 10.1986 11.5728 10.4201 11.311C11.5156 10.0187 14.375 6.45824 14.375 4.50476C14.375 2.08844 12.4163 0.129761 10 0.129761ZM10 5.9631C9.19444 5.9631 8.54167 5.31032 8.54167 4.50476C8.54167 3.69921 9.19444 3.04643 10 3.04643C10.8056 3.04643 11.4583 3.69921 11.4583 4.50476C11.4583 5.31032 10.8056 5.9631 10 5.9631ZM0.698611 7.62803C0.492423 7.7105 0.31567 7.85285 0.191149 8.03672C0.066628 8.2206 4.93822e-05 8.43756 0 8.65963L0 17.3513C0 17.7444 0.396875 18.0131 0.761806 17.8673L5.55556 15.6853V7.59227C5.24861 7.0374 4.99757 6.49713 4.81771 5.98046L0.698611 7.62803ZM10 12.6183C9.51146 12.6183 9.04931 12.4037 8.73229 12.0294C8.04965 11.2239 7.32361 10.3065 6.66667 9.36553V15.685L13.3333 17.9072V9.36588C12.6764 10.3065 11.9507 11.2242 11.2677 12.0298C10.9507 12.4037 10.4885 12.6183 10 12.6183ZM19.2382 5.7256L14.4444 7.90754V17.9075L19.3014 15.9648C19.5076 15.8824 19.6844 15.7401 19.8089 15.5562C19.9334 15.3723 20 15.1553 20 14.9332V6.24157C20 5.84851 19.6031 5.57976 19.2382 5.7256Z" fill="#0A2718"/>
</g>
</svg>
