<svg width="20" height="21" viewBox="0 0 20 21" fill="none" xmlns="http://www.w3.org/2000/svg">
<g id="&#240;&#159;&#166;&#134; icon &#34;linkedin&#34;">
<g id="Group">
<path id="Vector" d="M12.6251 7.01871C11.9864 7.01651 11.3535 7.14028 10.7627 7.38294C10.1718 7.62559 9.63467 7.98236 9.18187 8.43283C8.72907 8.8833 8.36955 9.41864 8.12386 10.0082C7.87818 10.5978 7.75115 11.23 7.75006 11.8687V16.7687C7.75006 16.9676 7.82908 17.1584 7.96973 17.299C8.11038 17.4397 8.30115 17.5187 8.50006 17.5187H10.2501C10.449 17.5187 10.6397 17.4397 10.7804 17.299C10.921 17.1584 11.0001 16.9676 11.0001 16.7687V11.8687C10.9999 11.6415 11.0476 11.4169 11.1401 11.2094C11.2326 11.0019 11.3677 10.8162 11.5368 10.6645C11.7058 10.5127 11.905 10.3983 12.1212 10.3287C12.3374 10.2591 12.5659 10.2358 12.7917 10.2604C13.1967 10.3114 13.5689 10.5093 13.8377 10.8165C14.1065 11.1237 14.2533 11.5188 14.2501 11.927V16.7687C14.2501 16.9676 14.3291 17.1584 14.4697 17.299C14.6104 17.4397 14.8011 17.5187 15.0001 17.5187H16.7501C16.949 17.5187 17.1397 17.4397 17.2804 17.299C17.421 17.1584 17.5001 16.9676 17.5001 16.7687V11.8687C17.499 11.23 17.3719 10.5978 17.1263 10.0082C16.8806 9.41864 16.521 8.8833 16.0683 8.43283C15.6155 7.98236 15.0783 7.62559 14.4875 7.38294C13.8966 7.14028 13.2638 7.01651 12.6251 7.01871Z" fill="#0A2718"/>
<path id="Vector_2" d="M5.5 7.76868H3.25C2.83579 7.76868 2.5 8.10446 2.5 8.51868V16.7687C2.5 17.1829 2.83579 17.5187 3.25 17.5187H5.5C5.91421 17.5187 6.25 17.1829 6.25 16.7687V8.51868C6.25 8.10446 5.91421 7.76868 5.5 7.76868Z" fill="#0A2718"/>
<path id="Vector_3" d="M4.375 6.26868C5.41053 6.26868 6.25 5.42921 6.25 4.39368C6.25 3.35814 5.41053 2.51868 4.375 2.51868C3.33947 2.51868 2.5 3.35814 2.5 4.39368C2.5 5.42921 3.33947 6.26868 4.375 6.26868Z" fill="#0A2718"/>
</g>
</g>
</svg>
